<?xml version="1.0" encoding="utf-8"?>
<!-- Generator: Adobe Illustrator 24.2.0, SVG Export Plug-In . SVG Version: 6.00 Build 0)  -->
<svg version="1.1" id="Calque_1" xmlns="http://www.w3.org/2000/svg" xmlns:xlink="http://www.w3.org/1999/xlink" x="0px" y="0px"
	 viewBox="0 0 170.1 170.1" style="enable-background:new 0 0 170.1 170.1;" xml:space="preserve">
<g>
	<path d="M79.9,7.1c-0.3,0-1.4,0.1-2.4,0.2c-22.1,2-42.9,13.9-56,32.3c-7.3,10.2-12,21.8-13.8,34.1C7.2,78,7.1,79.2,7.1,85.1
		s0.1,7.1,0.7,11.4c4.2,29.3,25.1,53.9,53.3,63c5.1,1.6,10.4,2.7,16.5,3.4c2.4,0.3,12.6,0.3,14.9,0c10.5-1.2,19.3-3.7,28.1-8.2
		c1.3-0.7,1.6-0.9,1.4-1c-0.1-0.1-5.8-7.8-12.7-17l-12.5-16.8L81.2,96.6c-8.6-12.7-15.7-23.1-15.7-23.1c-0.1,0-0.1,10.3-0.2,22.8
		c0,22-0.1,22.8-0.3,23.4c-0.4,0.7-0.7,1.1-1.3,1.4c-0.5,0.2-0.9,0.3-3.2,0.3h-2.6l-0.7-0.4c-0.5-0.3-0.8-0.7-1-1.1l-0.3-0.7l0-30.6
		l0-30.6l0.5-0.6c0.2-0.3,0.8-0.7,1.1-0.9c0.6-0.3,0.9-0.3,3.5-0.3c3.1,0,3.6,0.1,4.4,1c0.2,0.2,8.7,13,18.8,28.3s24,36.3,30.8,46.6
		l12.3,18.7l0.6-0.4c5.5-3.6,11.4-8.7,16-14c9.9-11.3,16.2-25.1,18.3-39.8c0.6-4.3,0.7-5.5,0.7-11.4s-0.1-7.1-0.7-11.4
		c-4.2-29.3-25.1-53.9-53.3-63C104,9.1,98.7,8,92.7,7.3C91.3,7.2,81.2,7,79.9,7.1L79.9,7.1z M111.8,54.3c0.7,0.4,1.3,1.1,1.5,1.8
		c0.1,0.4,0.2,8.9,0.1,28l0,27.4l-4.8-7.4l-4.8-7.4V76.7c0-12.9,0.1-20.1,0.2-20.5c0.2-0.9,0.8-1.5,1.5-1.9c0.6-0.3,0.9-0.4,3.2-0.4
		C110.9,54,111.3,54,111.8,54.3z"/>
</g>
</svg>
